<?xml version="1.0" encoding="UTF-8" standalone="no"?>
<!DOCTYPE svg PUBLIC "-//W3C//DTD SVG 1.1//EN" "http://www.w3.org/Graphics/SVG/1.1/DTD/svg11.dtd">
<svg version="1.1" xmlns="http://www.w3.org/2000/svg" xmlns:xlink="http://www.w3.org/1999/xlink" preserveAspectRatio="xMidYMid meet" viewBox="0 0 640 640" width="16" height="16"><defs><path d="M435.43 231.98C439.05 228.37 440.29 225.33 439.14 222.85C438 220.38 434.96 219.14 430.01 219.14C409.75 219.14 247.68 219.14 227.42 219.14C229.51 218.19 231.32 216.96 232.84 215.43C253.1 195.17 415.17 33.1 435.43 12.84C439.05 9.22 440.29 6.18 439.14 3.71C438 1.24 434.96 0 430.01 0C388.01 0 51.99 0 9.99 0C5.04 0 2 1.24 0.86 3.71C-0.28 6.18 0.96 9.22 4.57 12.84C24.83 33.1 186.9 195.17 207.16 215.43C208.87 216.95 210.68 218.19 212.58 219.14C192.33 219.14 30.25 219.14 9.99 219.14C5.04 219.14 2 220.38 0.86 222.85C-0.28 225.33 0.96 228.37 4.57 231.98C24.83 252.24 186.91 414.32 207.17 434.58C210.78 438.18 215.06 440 220.01 440C224.94 440 229.22 438.18 232.84 434.58C273.36 394.06 415.17 252.24 435.43 231.98Z" id="af4uNWFS1"></path></defs><g><g><g><use xlink:href="#af4uNWFS1" opacity="1" fill="#000000" fill-opacity="1"></use><g><use xlink:href="#af4uNWFS1" opacity="1" fill-opacity="0" stroke="#000000" stroke-width="1" stroke-opacity="0"></use></g></g></g></g></svg>