<?xml version="1.0" encoding="UTF-8" standalone="no"?>
<!DOCTYPE svg PUBLIC "-//W3C//DTD SVG 1.1//EN" "http://www.w3.org/Graphics/SVG/1.1/DTD/svg11.dtd">
<svg version="1.1" xmlns="http://www.w3.org/2000/svg" xmlns:xlink="http://www.w3.org/1999/xlink" preserveAspectRatio="xMidYMid meet" viewBox="0 0 640 640" width="16" height="16"><defs><path d="M4.57 208.02C0.95 211.63 -0.29 214.67 0.86 217.15C2 219.62 5.04 220.86 9.99 220.86C30.25 220.86 192.32 220.86 212.58 220.86C210.49 221.81 208.68 223.04 207.16 224.57C186.9 244.83 24.83 406.9 4.57 427.16C0.95 430.78 -0.29 433.82 0.86 436.29C2 438.76 5.04 440 9.99 440C51.99 440 388.01 440 430.01 440C434.96 440 438 438.76 439.14 436.29C440.28 433.82 439.04 430.78 435.43 427.16C415.17 406.9 253.1 244.83 232.84 224.57C231.13 223.05 229.32 221.81 227.42 220.86C247.67 220.86 409.75 220.86 430.01 220.86C434.96 220.86 438 219.62 439.14 217.15C440.28 214.67 439.04 211.63 435.43 208.02C415.17 187.76 253.09 25.69 232.83 5.43C229.22 1.82 224.94 0 219.99 0C215.06 0 210.78 1.82 207.16 5.42C166.64 45.94 24.83 187.76 4.57 208.02Z" id="b3gYHA9kzY"></path></defs><g><g><g><use xlink:href="#b3gYHA9kzY" opacity="1" fill="#000000" fill-opacity="1"></use><g><use xlink:href="#b3gYHA9kzY" opacity="1" fill-opacity="0" stroke="#000000" stroke-width="1" stroke-opacity="0"></use></g></g></g></g></svg>