/* XPM */
static char * top_right_active_xpm[] = {
"12 43 3 1",
"       c None",
".      c #C0C0FF s active_mid_2",
"@      c #C0C0FF s active_color_1",
"@@@@@       ",
"@@@@@@@     ",
".....@@@@   ",
".......@@@  ",
"........@@  ",
".........@@ ",
".........@@ ",
"..........@@",
"..........@@",
"..........@@",
"..........@@",
"..........@@",
"..........@@",
"..........@@",
"..........@@",
"..........@@",
"..........@@",
"..........@@",
"..........@@",
"..........@@",
"..........@@",
"..........@@",
"..........@@",
"..........@@",
"..........@@",
"..........@@",
"..........@@",
"..........@@",
"..........@@",
"..........@@",
"..........@@",
"..........@@",
"..........@@",
"..........@@",
"..........@@",
"..........@@",
"..........@@",
"..........@@",
"..........@@",
"..........@@",
"..........@@",
"..........@@",
"..........@@"};
